<svg width="200" height="200" viewBox="0 0 200 200" xmlns="http://www.w3.org/2000/svg">
  <defs>
    <linearGradient id="bg" x1="0%" y1="0%" x2="100%" y2="100%">
      <stop offset="0%" stop-color="#b224ef"/>
      <stop offset="100%" stop-color="#7579ff"/>
    </linearGradient>
  </defs>
  <rect width="200" height="200" rx="22" fill="url(#bg)"/>
  <circle cx="100" cy="78" r="42" fill="#f8f9fa"/>
  <path d="M58 162c8-32 30-46 42-46s34 14 42 46v20H58v-20z" fill="#f8f9fa"/>
  <path d="M68 96c4-26 18-44 32-44s28 18 32 44c-10-6-22-10-32-10s-22 4-32 10z" fill="#6c2bbd"/>
  <path d="M86 150c4 4 8 6 14 6s10-2 14-6" stroke="#6c2bbd" stroke-width="6" stroke-linecap="round" fill="none"/>
</svg>
